HIERARCHY
ROOT Hips
{
	OFFSET 0.000000 0.000000 0.000000
	CHANNELS 6 Xposition Yposition Zposition Xrotation Yrotation Zrotation
	JOINT LeftUpLeg_virtual
	{
		OFFSET 0.000000 0.000000 0.000000
		CHANNELS 3 Xrotation Yrotation Zrotation
		JOINT LeftUpLeg
		{
			OFFSET 13.026900 -6.336304 -1.092800
			CHANNELS 3 Xrotation Yrotation Zrotation
			JOINT LeftLeg
			{
				OFFSET 0.524474 -46.096886 9.782700
				CHANNELS 3 Xrotation Yrotation Zrotation
				JOINT LeftFoot
				{
					OFFSET -0.524474 -53.427422 -12.948200
					CHANNELS 3 Xrotation Yrotation Zrotation
					JOINT LeftToeBase
					{
						OFFSET 0.192200 -14.009700 16.364100
						CHANNELS 3 Xrotation Yrotation Zrotation
						JOINT LeftToe_End
						{
							OFFSET -1.784700 -0.561700 9.474800
							CHANNELS 3 Xrotation Yrotation Zrotation
							End Site
							{
								OFFSET 0 0 0
							}
						}
					}
				}
			}
		}
	}
	JOINT RightUpLeg_virtual
	{
		OFFSET 0.000000 0.000000 0.000000
		CHANNELS 3 Xrotation Yrotation Zrotation
		JOINT RightUpLeg
		{
			OFFSET -12.883000 -6.336304 -1.092800
			CHANNELS 3 Xrotation Yrotation Zrotation
			JOINT RightLeg
			{
				OFFSET -0.524587 -46.096825 9.782800
				CHANNELS 3 Xrotation Yrotation Zrotation
				JOINT RightFoot
				{
					OFFSET 0.524587 -53.427383 -12.948300
					CHANNELS 3 Xrotation Yrotation Zrotation
					JOINT RightToeBase
					{
						OFFSET -0.192200 -14.009700 16.364100
						CHANNELS 3 Xrotation Yrotation Zrotation
						JOINT RightToe_End
						{
							OFFSET 1.784700 -0.561700 9.474800
							CHANNELS 3 Xrotation Yrotation Zrotation
							End Site
							{
								OFFSET 0 0 0
							}
						}
					}
				}
			}
		}
	}
	JOINT Spine_virtual
	{
		OFFSET 0.000000 0.000000 0.000000
		CHANNELS 3 Xrotation Yrotation Zrotation
		JOINT Spine
		{
			OFFSET 0.072000 7.257294 -0.789700
			CHANNELS 3 Xrotation Yrotation Zrotation
			JOINT Spine1
			{
				OFFSET 0.000000 12.508769 -0.658067
				CHANNELS 3 Xrotation Yrotation Zrotation
				JOINT Spine1_split
				{
					OFFSET 0.000000 12.508769 -0.658067
					CHANNELS 3 Xrotation Yrotation Zrotation
					JOINT Spine2
					{
						OFFSET 0.000000 12.508769 -0.658067
						CHANNELS 3 Xrotation Yrotation Zrotation
						JOINT Neck_virtual
						{
							OFFSET 0.000000 0.000000 0.000000
							CHANNELS 3 Xrotation Yrotation Zrotation
							JOINT Neck
							{
								OFFSET 0.000000 14.033295 7.520400
								CHANNELS 3 Xrotation Yrotation Zrotation
								JOINT Head
								{
									OFFSET 0.000000 8.198502 5.703100
									CHANNELS 3 Xrotation Yrotation Zrotation
									JOINT HeadTop_End
									{
										OFFSET 0.000000 17.760803 13.332701
										CHANNELS 3 Xrotation Yrotation Zrotation
										End Site
										{
											OFFSET 0 0 0
										}
									}
								}
							}
						}
						JOINT LeftShoulder_virtual
						{
							OFFSET 0.000000 0.000000 0.000000
							CHANNELS 3 Xrotation Yrotation Zrotation
							JOINT LeftShoulder
							{
								OFFSET 6.292450 5.785301 -0.669000
								CHANNELS 3 Xrotation Yrotation Zrotation
								JOINT LeftShoulder_split
								{
									OFFSET 6.292450 5.785301 -0.669000
									CHANNELS 3 Xrotation Yrotation Zrotation
									JOINT LeftArm
									{
										OFFSET 13.907140 -6.093903 1.965100
										CHANNELS 3 Xrotation Yrotation Zrotation
										JOINT LeftForeArm
										{
											OFFSET 34.140198 0.000000 0.000000
											CHANNELS 3 Xrotation Yrotation Zrotation
											JOINT LeftHand
											{
												OFFSET 40.960209 0.000000 0.000000
												CHANNELS 3 Xrotation Yrotation Zrotation
												End Site
												{
													OFFSET 0 0 0
												}
											}
										}
									}
								}
							}
						}
						JOINT RightShoulder_virtual
						{
							OFFSET 0.000000 0.000000 0.000000
							CHANNELS 3 Xrotation Yrotation Zrotation
							JOINT RightShoulder
							{
								OFFSET -6.292450 5.785301 -0.669000
								CHANNELS 3 Xrotation Yrotation Zrotation
								JOINT RightShoulder_split
								{
									OFFSET -6.292450 5.785301 -0.669000
									CHANNELS 3 Xrotation Yrotation Zrotation
									JOINT RightArm
									{
										OFFSET -13.907140 -6.093903 1.965100
										CHANNELS 3 Xrotation Yrotation Zrotation
										JOINT RightForeArm
										{
											OFFSET -34.140198 0.000000 0.000000
											CHANNELS 3 Xrotation Yrotation Zrotation
											JOINT RightHand
											{
												OFFSET -40.960209 0.000000 0.000000
												CHANNELS 3 Xrotation Yrotation Zrotation
												End Site
												{
													OFFSET 0 0 0
												}
											}
										}
									}
								}
							}
						}
					}
				}
			}
		}
	}
}
MOTION
Frames: 10
Frame Time: 0.03333333
0.295886 101.135628 2.400154 0.000000 0.000000 0.000000 7.872216 -57.631183 9.353368 -34.579441 8.371493 26.170609 34.903469 -4.285102 -5.696787 -3.779264 -4.764731 -10.795764 1.476383 0.153082 -0.689964 0.000000 0.000000 0.000000 8.405342 -58.876251 10.109932 -32.869568 -7.862958 -27.352198 42.422653 2.834784 -5.158385 -11.746599 0.541283 19.734385 2.563189 0.299510 -0.001315 0.000000 0.000000 0.000000 10.106456 -54.293150 10.559914 9.282691 -1.958660 -1.485615 8.512570 0.572591 -5.859277 -0.528355 -4.499150 0.976564 0.000000 0.000000 0.000000 8.430159 0.947674 -4.704197 -15.333662 26.824796 6.159602 -3.565789 35.578175 -6.558320 0.000000 0.000000 0.000000 8.497577 1.059990 -5.522877 -5.849908 -10.279676 -1.591636 -5.897790 1.020769 -4.239680 -19.154019 -1.113712 -33.304119 3.229474 -34.988190 8.196196 0.000000 0.000000 0.000000 8.942476 1.113536 -5.340336 -2.740595 11.709342 -4.011653 1.842458 -4.144339 8.617813 -44.111667 -20.494408 33.577118 -152.836548 66.981036 150.853088 0.000000 0.000000 0.000000 
0.640144 100.986855 1.770737 0.000000 0.000000 0.000000 8.244936 -57.640171 9.919513 -34.224265 8.412338 25.518229 34.496079 -3.282323 -5.998710 -4.330406 -4.414612 -10.133054 1.535590 0.144097 -0.896965 0.000000 0.000000 0.000000 8.799500 -59.253756 10.754407 -33.071738 -7.953987 -27.730133 42.435836 3.077308 -5.132211 -11.665852 0.585580 19.302130 2.108310 0.146473 0.249900 0.000000 0.000000 0.000000 10.445818 -54.186022 11.003592 9.224251 -1.746690 -1.426843 8.387082 0.567940 -5.841917 -0.470139 -4.200645 1.388711 0.000000 0.000000 0.000000 8.499686 0.897483 -4.605810 -15.249347 27.333616 6.205179 -2.967872 35.097439 -6.549627 0.000000 0.000000 0.000000 8.565903 1.027653 -5.460395 -5.822581 -10.373521 -1.876446 -6.841208 0.625438 -4.872900 -18.721600 -1.051601 -33.998277 3.169828 -36.406568 7.868208 0.000000 0.000000 0.000000 8.822311 1.023364 -5.117703 -2.116461 12.391348 -3.664378 1.327803 -4.382840 6.921456 -44.100803 -22.870902 32.787978 -150.346425 68.356171 148.430201 0.000000 0.000000 0.000000 
1.004838 100.881317 1.039322 0.000000 0.000000 0.000000 8.417388 -58.208074 10.601429 -33.640352 9.061537 25.004503 34.074909 -2.165049 -6.406799 -4.852377 -4.285481 -10.233553 1.600670 0.106060 -0.947864 0.000000 0.000000 0.000000 8.803748 -59.997474 11.396385 -33.360153 -8.296660 -28.463294 42.359696 3.874192 -4.988287 -11.600774 0.729629 19.120203 1.934397 0.026334 0.315614 0.000000 0.000000 0.000000 10.162323 -54.438927 11.193723 9.460298 -1.393263 -1.411361 8.486106 0.640427 -5.755301 -0.158649 -3.478024 1.438295 0.000000 0.000000 0.000000 8.627012 0.989097 -4.533202 -16.034115 27.598061 7.217603 -1.834692 34.513376 -6.753549 0.000000 0.000000 0.000000 8.730084 1.053374 -5.337963 -5.832475 -10.800302 -2.239126 -7.467228 -0.337207 -5.348307 -18.900283 1.248196 -35.071348 3.487086 -38.374772 6.862509 0.000000 0.000000 0.000000 8.759057 1.017242 -4.849100 -1.230824 12.864872 -3.023653 0.330561 -3.680976 5.393852 -44.694873 -24.427118 30.274667 -142.640045 69.597968 141.308226 0.000000 0.000000 0.000000 
1.285824 100.928917 0.643860 0.000000 0.000000 0.000000 8.486871 -59.473613 11.457466 -32.980006 10.279315 24.657118 33.912039 -1.020707 -6.853382 -5.337172 -4.321828 -11.097155 1.852607 0.054853 -0.834108 0.000000 0.000000 0.000000 8.585552 -61.265322 12.065385 -33.722888 -8.723661 -29.496565 42.209900 5.109840 -4.689352 -11.384082 1.100693 19.301462 1.841757 -0.051209 0.195355 0.000000 0.000000 0.000000 9.477693 -55.336195 11.302915 9.943835 -0.934298 -1.423551 8.789515 0.801283 -5.560125 0.141468 -2.713077 1.240977 0.000000 0.000000 0.000000 8.812752 1.207589 -4.427756 -17.326877 27.582783 8.747194 -0.105377 34.007727 -7.318703 0.000000 0.000000 0.000000 8.970732 1.159905 -5.113268 -5.916953 -11.563086 -2.875173 -7.963752 -1.520517 -5.463459 -19.063746 5.266012 -36.135881 4.191804 -40.575449 5.364511 0.000000 0.000000 0.000000 8.833718 1.106825 -4.548167 -0.150959 13.270346 -2.261228 -0.888562 -2.752591 4.162261 -45.540990 -24.540012 26.130646 -130.351988 69.918413 130.059301 0.000000 0.000000 0.000000 
1.424732 101.050751 0.730942 0.000000 0.000000 0.000000 8.611891 -61.703389 12.590643 -32.349347 11.851124 24.395212 34.235439 0.212900 -7.280430 -5.926464 -4.290338 -12.374645 2.357352 0.018257 -0.625014 0.000000 0.000000 0.000000 8.217599 -63.287481 12.794431 -34.267599 -8.936071 -30.632712 41.820456 6.656899 -4.270360 -11.003034 1.723573 19.759353 1.356543 -0.081087 -0.048107 0.000000 0.000000 0.000000 8.442078 -57.100289 11.430110 10.548991 -0.405023 -1.403307 9.249493 1.045131 -5.167310 0.430409 -2.042221 1.034095 0.000000 0.000000 0.000000 9.082960 1.513652 -4.196792 -18.504994 27.402254 10.348578 2.226243 33.799662 -8.467742 0.000000 0.000000 0.000000 9.356725 1.338993 -4.690363 -6.126135 -12.660707 -3.904282 -8.158254 -2.253000 -5.513373 -18.767191 9.877984 -36.807869 5.541654 -43.054132 3.746274 0.000000 0.000000 0.000000 9.096595 1.271147 -4.156379 1.013692 13.700694 -1.674193 -1.852327 -2.367977 3.026388 -46.008748 -22.676556 20.689790 -115.497160 68.808610 116.544624 0.000000 0.000000 0.000000 
1.381189 101.244171 1.426090 0.000000 0.000000 0.000000 8.960994 -64.838439 14.061321 -31.734015 13.500831 24.120878 35.127871 1.623486 -7.662587 -6.909901 -3.987438 -13.577488 2.838149 0.020371 -0.383913 0.000000 0.000000 0.000000 8.048864 -65.983124 13.760287 -35.019415 -8.637918 -31.637187 41.111773 8.335500 -3.818749 -10.702084 2.504264 20.223954 0.381146 -0.075466 -0.270125 0.000000 0.000000 0.000000 7.160182 -59.835599 11.647721 11.106000 0.148031 -1.275351 9.823224 1.338038 -4.525651 0.534828 -1.438082 0.971824 0.000000 0.000000 0.000000 9.423037 1.853593 -3.760949 -19.000230 27.327934 11.583643 5.059701 33.954059 -10.335140 0.000000 0.000000 0.000000 9.894355 1.574377 -4.024077 -6.492422 -14.035739 -5.357979 -7.826104 -2.603221 -5.423158 -17.519796 14.006963 -36.802473 8.015334 -45.975216 2.730178 0.000000 0.000000 0.000000 9.562877 1.463533 -3.634017 2.254336 14.342156 -1.550676 -2.773710 -3.111809 2.168001 -45.137145 -18.910033 14.515539 -99.255851 66.302750 101.826127 0.000000 0.000000 0.000000 
1.276692 101.421417 2.519588 0.000000 0.000000 0.000000 9.870596 -68.682559 16.115393 -31.232174 14.885540 23.776348 36.760836 3.193761 -8.012689 -8.279157 -3.357265 -14.253917 3.051515 0.063725 -0.171061 0.000000 0.000000 0.000000 8.418520 -69.154115 15.182670 -35.868329 -7.602262 -32.292233 40.522641 9.961573 -3.396719 -10.567451 3.296792 20.216650 -0.549683 -0.049707 -0.345274 0.000000 0.000000 0.000000 5.964718 -63.308764 12.154072 11.464548 0.676274 -0.960703 10.439810 1.603779 -3.618253 0.455314 -0.974144 1.019050 0.000000 0.000000 0.000000 9.828723 2.129465 -3.066967 -18.532216 27.484610 12.310476 8.087977 34.439241 -12.912302 0.000000 0.000000 0.000000 10.544619 1.787332 -3.125593 -6.931028 -15.675200 -7.021340 -6.563034 -2.505064 -5.028333 -15.348939 17.087059 -36.018576 12.384654 -49.108288 3.254664 0.000000 0.000000 0.000000 10.195043 1.622793 -2.904457 3.553398 15.193426 -2.227428 -3.197790 -4.632995 1.734653 -42.634475 -13.643483 8.436389 -83.304894 62.318919 87.293711 0.000000 0.000000 0.000000 
1.077332 101.399940 3.716938 0.000000 0.000000 0.000000 11.615470 -72.767333 18.979012 -31.026582 15.798724 23.380084 39.233829 4.828190 -8.402756 -9.931106 -2.552486 -14.013602 2.867742 0.125008 -0.028561 0.000000 0.000000 0.000000 9.684173 -72.479891 17.388912 -36.820010 -5.821038 -32.517086 40.366855 11.405373 -3.103621 -10.457390 3.945825 19.700130 -1.129263 -0.013993 -0.199631 0.000000 0.000000 0.000000 5.171859 -67.150247 13.045778 11.583273 1.118558 -0.420853 11.050824 1.744385 -2.486613 0.377440 -0.961297 1.074895 0.000000 0.000000 0.000000 10.307735 2.229330 -2.088561 -17.041196 27.966314 12.550297 11.166588 35.293650 -16.154348 0.000000 0.000000 0.000000 11.247676 1.860276 -2.061809 -7.391050 -17.441414 -8.443413 -4.345237 -1.830103 -4.195877 -12.499036 19.127069 -34.466234 19.673720 -52.354476 6.530431 0.000000 0.000000 0.000000 10.920229 1.672989 -1.957764 4.923475 16.146002 -3.864377 -3.450559 -5.988097 1.695364 -39.302449 -7.663241 3.229021 -69.604737 56.871270 74.790455 0.000000 0.000000 0.000000 
0.860534 101.087730 4.899761 0.000000 0.000000 0.000000 14.605408 -76.321770 22.921719 -31.334285 16.131763 23.028936 42.360068 6.271793 -8.870680 -11.579661 -1.829395 -12.971449 2.365986 0.182520 0.031565 0.000000 0.000000 0.000000 12.463057 -75.524544 20.865378 -37.865858 -3.516065 -32.298032 40.787916 12.625373 -3.081027 -10.311886 4.364921 19.330579 -1.767313 -0.006526 0.084628 0.000000 0.000000 0.000000 5.416767 -70.905901 14.673381 11.513319 1.403480 0.333974 11.588368 1.616188 -1.247920 0.097792 -1.296179 1.282387 0.000000 0.000000 0.000000 10.811800 2.067715 -0.908233 -14.804556 28.726423 12.582951 14.157601 36.501508 -19.743628 0.000000 0.000000 0.000000 11.907002 1.682903 -0.938008 -7.711984 -19.133696 -9.185031 -2.169529 -0.756676 -3.521441 -9.488119 20.503861 -32.091576 30.715668 -55.058100 13.612043 0.000000 0.000000 0.000000 11.591510 1.483272 -0.850780 6.364492 16.922171 -6.421983 -3.864796 -6.628811 2.202751 -36.368059 -1.702271 -0.416610 -59.209551 50.609970 65.189115 0.000000 0.000000 0.000000 
0.733526 100.498909 5.989624 0.000000 0.000000 0.000000 19.462259 -79.005549 28.465368 -32.424817 15.864791 22.838486 45.969806 7.208810 -9.422744 -12.745515 -1.287827 -11.616856 1.694042 0.247418 0.001883 0.000000 0.000000 0.000000 17.091194 -77.900104 25.936655 -38.797916 -1.077740 -31.724863 41.649776 13.653213 -3.371492 -10.148120 4.560802 19.718118 -2.700283 -0.034207 0.349827 0.000000 0.000000 0.000000 6.893163 -74.055875 17.167423 11.335627 1.473151 1.214665 11.965412 1.118512 -0.060411 -0.194207 -1.772923 1.468550 0.000000 0.000000 0.000000 11.284631 1.575893 0.303330 -12.219968 29.581344 12.746244 16.769704 37.973895 -23.403481 0.000000 0.000000 0.000000 12.450513 1.195301 0.140691 -7.714336 -20.539822 -8.868987 0.021654 0.499685 -3.082064 -6.668713 21.444371 -29.010214 45.647674 -56.463145 24.717432 0.000000 0.000000 0.000000 12.110511 0.962558 0.301473 7.741768 17.042963 -9.636238 -4.289573 -6.379018 3.058128 -35.233258 3.784786 -1.986119 -52.221752 44.733569 58.599868 0.000000 0.000000 0.000000 
